<?xml version="1.0" encoding="UTF-8" standalone="no"?>
<!-- Created with Inkscape (http://www.inkscape.org/) -->

<svg
   width="210mm"
   height="101.99759mm"
   viewBox="0 0 210 101.99759"
   version="1.1"
   id="svg8442"
   inkscape:version="1.2.2 (732a01da63, 2022-12-09)"
   sodipodi:docname="platoquote.svg"
   xml:space="preserve"
   xmlns:inkscape="http://www.inkscape.org/namespaces/inkscape"
   xmlns:sodipodi="http://sodipodi.sourceforge.net/DTD/sodipodi-0.dtd"
   xmlns="http://www.w3.org/2000/svg"
   xmlns:svg="http://www.w3.org/2000/svg"><sodipodi:namedview
     id="namedview8444"
     pagecolor="#ffffff"
     bordercolor="#999999"
     borderopacity="1"
     inkscape:showpageshadow="0"
     inkscape:pageopacity="0"
     inkscape:pagecheckerboard="0"
     inkscape:deskcolor="#d1d1d1"
     inkscape:document-units="mm"
     showgrid="false"
     inkscape:zoom="1"
     inkscape:cx="413.5"
     inkscape:cy="204.5"
     inkscape:window-width="1920"
     inkscape:window-height="1001"
     inkscape:window-x="-9"
     inkscape:window-y="-9"
     inkscape:window-maximized="1"
     inkscape:current-layer="layer1" /><defs
     id="defs8439" /><g
     inkscape:label="Layer 1"
     inkscape:groupmode="layer"
     id="layer1"
     transform="translate(14.08452,-86.949836)"><text
       xml:space="preserve"
       style="font-weight:500;font-size:16.9333px;font-family:Inter;-inkscape-font-specification:'Inter Medium';text-align:center;text-anchor:middle;fill:#44466d;stroke:#44466d;stroke-width:0.2;stroke-linecap:round;stroke-linejoin:round;stop-color:#000000"
       x="104.33517"
       y="135.95386"
       id="text8671"
       inkscape:label="having torches"><tspan
         sodipodi:role="line"
         id="tspan8669"
         style="font-style:normal;font-variant:normal;font-weight:normal;font-stretch:normal;font-size:16.9333px;font-family:'Beth Ellen';-inkscape-font-specification:'Beth Ellen';stroke-width:0.2"
         x="104.33517"
         y="135.95386">having torches</tspan></text><text
       xml:space="preserve"
       style="font-weight:500;font-size:16.9333px;font-family:Inter;-inkscape-font-specification:'Inter Medium';text-align:center;text-anchor:middle;fill:#44466d;stroke:#44466d;stroke-width:0.2;stroke-linecap:round;stroke-linejoin:round;stop-color:#000000"
       x="111.2738"
       y="158.41663"
       id="text8687"
       inkscape:label="pass them on"><tspan
         sodipodi:role="line"
         id="tspan8685"
         style="font-style:normal;font-variant:normal;font-weight:normal;font-stretch:normal;font-size:16.9333px;font-family:'Beth Ellen';-inkscape-font-specification:'Beth Ellen';stroke-width:0.2"
         x="111.2738"
         y="158.41663">pass them on</tspan></text><text
       xml:space="preserve"
       style="font-weight:500;font-size:7.05556px;font-family:Inter;-inkscape-font-specification:'Inter Medium';text-align:center;text-anchor:middle;fill:#44466d;stroke:#44466d;stroke-width:0.2;stroke-linecap:round;stroke-linejoin:round;stop-color:#000000"
       x="78.139313"
       y="146.02412"
       id="text8683"
       inkscape:label="will"><tspan
         sodipodi:role="line"
         id="tspan8681"
         style="font-style:normal;font-variant:normal;font-weight:200;font-stretch:normal;font-size:7.05556px;font-family:Inter;-inkscape-font-specification:'Inter Ultra-Light';stroke-width:0.2"
         x="78.139313"
         y="146.02412">will</tspan></text><text
       xml:space="preserve"
       style="font-weight:500;font-size:7.05556px;font-family:Inter;-inkscape-font-specification:'Inter Medium';text-align:center;text-anchor:middle;fill:#44466d;stroke:#44466d;stroke-width:0.2;stroke-linecap:round;stroke-linejoin:round;stop-color:#000000"
       x="71.951721"
       y="167.83598"
       id="text8691"
       inkscape:label="to others"><tspan
         sodipodi:role="line"
         id="tspan8689"
         style="font-style:normal;font-variant:normal;font-weight:200;font-stretch:normal;font-size:7.05556px;font-family:Inter;-inkscape-font-specification:'Inter Ultra-Light';stroke-width:0.2"
         x="71.951721"
         y="167.83598">to others</tspan></text><text
       xml:space="preserve"
       style="font-weight:500;font-size:7.05556px;font-family:Inter;-inkscape-font-specification:'Inter Medium';text-align:center;text-anchor:middle;fill:#44466d;stroke:#44466d;stroke-width:0.2;stroke-linecap:round;stroke-linejoin:round;stop-color:#000000"
       x="158.45821"
       y="181.29112"
       id="text8695"
       inkscape:label="plato"><tspan
         sodipodi:role="line"
         id="tspan8693"
         style="font-style:normal;font-variant:normal;font-weight:300;font-stretch:normal;font-size:7.05556px;font-family:Inter;-inkscape-font-specification:'Inter Light';stroke-width:0.2"
         x="158.45821"
         y="181.29112">- Plato</tspan></text><text
       xml:space="preserve"
       style="font-style:normal;font-variant:normal;font-weight:200;font-stretch:normal;font-size:7.05556px;font-family:Inter;-inkscape-font-specification:'Inter Ultra-Light';text-align:center;text-anchor:middle;fill:#44466d;stroke:#44466d;stroke-width:0.2;stroke-linecap:round;stroke-linejoin:round;stop-color:#000000"
       x="60.840981"
       y="123.62019"
       id="text8617"
       inkscape:label="those"><tspan
         sodipodi:role="line"
         id="tspan8615"
         style="font-style:normal;font-variant:normal;font-weight:200;font-stretch:normal;font-size:7.05556px;font-family:Inter;-inkscape-font-specification:'Inter Ultra-Light';stroke-width:0.2"
         x="60.840981"
         y="123.62019">Those</tspan></text><g
       id="g594"
       inkscape:label="torch"
       transform="rotate(-1.7614079,2305.7361,633.93692)"
       style="fill:#44466d;fill-opacity:1"><path
         style="display:inline;fill:#44466d;fill-opacity:1;stroke-width:0.0846667"
         d="m 59.98929,91.077437 c -0.376344,-0.0898 -2.541067,-0.375038 -4.191001,-0.552224 -0.6985,-0.07501 -1.9558,-0.144773 -2.794,-0.155025 -0.932273,-0.0114 -1.689752,-0.06215 -1.950906,-0.130705 -0.387698,-0.10177 -0.527666,-0.09192 -1.524,0.107211 -2.334991,0.466689 -4.412653,0.484842 -5.596334,0.0489 -0.597838,-0.220181 -1.150888,-0.752949 -1.49417,-1.43937 l -0.236075,-0.472055 -1.033925,-0.407554 c -1.103483,-0.434972 -1.915067,-0.815837 -2.26591,-1.063357 -0.118792,-0.08381 -0.328342,-0.355208 -0.465667,-0.60311 -0.227542,-0.410768 -0.24968,-0.522384 -0.24968,-1.258873 v -0.808142 l -0.318726,-0.372696 c -0.533587,-0.623941 -0.598799,-1.203926 -0.195231,-1.736354 0.302451,-0.399023 0.471623,-0.774226 0.471623,-1.045997 0,-0.13754 -0.155747,-0.574662 -0.346106,-0.971379 -0.441096,-0.919267 -0.530319,-1.605787 -0.258339,-1.987749 0.232767,-0.326891 0.689127,-1.291939 0.688467,-1.455875 -2.54e-4,-0.06985 -0.124077,-0.212369 -0.2751,-0.316709 -0.151023,-0.10434 -0.48237,-0.374425 -0.736326,-0.600188 l -0.461736,-0.41048 0.09819,-0.733876 c 0.05401,-0.403632 0.170889,-0.89822 0.259741,-1.099085 0.159858,-0.361386 0.174738,-0.370569 1.421879,-0.877538 0.693181,-0.281782 1.377694,-0.53404 1.521141,-0.560573 0.35496,-0.06566 0.653686,0.08668 3.49765,1.78362 l 2.403794,1.434299 1.363872,-0.695083 c 0.75013,-0.382297 1.416335,-0.711464 1.480456,-0.731485 0.09321,-0.02911 0.07096,-0.17146 -0.111018,-0.710152 -0.563789,-1.668945 -0.831428,-3.317298 -0.648232,-3.992377 0.120873,-0.445419 0.397619,-0.666528 0.987526,-0.788991 0.715357,-0.148508 0.98314,-0.02337 1.425224,0.666011 0.417375,0.650852 1.359392,1.56034 2.350669,2.269495 0.959333,0.686299 1.17707,0.925573 1.456479,1.600541 0.672321,1.624145 1.667044,4.891987 1.831763,6.017664 0.169147,1.155933 0.19591,1.168119 2.506066,1.141091 2.29478,-0.02685 3.845882,0.174516 4.219084,0.54772 0.35842,0.358421 0.0211,2.609479 -0.83798,5.592151 -0.609007,2.114463 -1.50611,4.796712 -1.612163,4.820235 -0.04657,0.01033 -0.218017,-0.01304 -0.381,-0.05193 z"
         id="path346"
         sodipodi:nodetypes="ssssssscsssscssssscsscssssscsssssssssssssss"
         inkscape:label="hand" /><path
         style="display:inline;fill:#44466d;fill-opacity:1;stroke-width:0.0846667"
         d="m 45.71081,97.594118 c -0.583257,-0.224305 -1.194153,-0.777268 -1.438568,-1.302144 -0.287233,-0.616828 -0.27738,-1.447653 0.02464,-2.077559 0.297722,-0.620945 0.393958,-1.556123 0.262445,-2.550307 l -0.06296,-0.475974 1.41763,0.01031 c 0.779697,0.0057 1.751005,-0.02026 2.158464,-0.05761 l 0.740833,-0.06792 v 0.624334 c 0,0.349537 0.05947,0.798875 0.135119,1.020887 0.102249,0.300085 0.11406,0.45696 0.04855,0.644876 -0.06911,0.198263 -0.0595,0.27071 0.04769,0.359364 0.292569,0.241977 0.528987,0.93488 0.528987,1.550372 0,1.06121 -0.626635,1.938417 -1.661235,2.32551 -0.613626,0.229587 -1.598651,0.227735 -2.20159,-0.0041 z"
         id="path346-4"
         sodipodi:nodetypes="csssccscsssssscc"
         inkscape:label="bottom-handle" /><path
         style="display:inline;fill:#44466d;fill-opacity:1;stroke-width:0.0846667"
         d="M 44.029622,73.542008 C 43.005155,72.93078 42.155878,72.421921 42.142338,72.41121 42.128799,72.4005 41.864103,70.388573 41.554125,67.940261 l -0.563596,-4.451476 -0.88033,-0.428012 c -2.564398,-1.246797 -4.048195,-2.913278 -5.002836,-5.618784 -0.295292,-0.836873 -0.602741,-1.98478 -0.602741,-2.250422 0,-0.20904 0.366246,-0.40762 1.78172,-0.966056 2.912369,-1.148996 5.912889,-1.729661 9.351947,-1.809804 2.173636,-0.05065 3.423958,0.02633 5.185334,0.319251 1.058486,0.176032 3.200773,0.688339 3.302102,0.789666 0.119507,0.119507 0.05074,2.373388 -0.08996,2.948549 -0.605722,2.4761 -2.224015,4.491537 -4.904977,6.108699 l -0.232833,0.140446 v 2.611893 2.611894 l -0.336458,0.0538 c -0.454379,0.07266 -0.904889,0.479655 -1.027294,0.928074 -0.165455,0.606128 -0.04203,2.151834 0.26475,3.315433 0.147325,0.5588 0.285413,1.0922 0.306865,1.185333 0.03305,0.143481 -0.121598,0.25012 -1.012947,0.6985 -0.578572,0.291042 -1.085391,0.528473 -1.126265,0.527625 -0.04088,-8.47e-4 -0.912518,-0.501638 -1.936985,-1.112865 z m 8.76974,-17.708824 c 0.301422,-0.460258 0.557285,-1.045635 0.487528,-1.115391 -0.07991,-0.07991 -2.006219,-0.474765 -2.949601,-0.604614 -1.306694,-0.179858 -4.97856,-0.206054 -6.434667,-0.04591 -0.828073,0.09107 -4.076683,0.592308 -4.120135,0.635704 -0.008,0.0079 1.8969,0.01468 4.233005,0.01498 3.610521,4.23e-4 4.40617,0.02306 5.305797,0.150716 0.973108,0.138079 2.878667,0.543588 2.878667,0.61259 0,0.07076 -0.248107,1.199662 -0.297324,1.352816 -0.07965,0.247875 0.509744,-0.409981 0.89673,-1.000897 z"
         id="path346-9"
         sodipodi:nodetypes="ssscssssssssscccssssssssssssccsssss"
         inkscape:label="top-handle" /><path
         style="display:inline;fill:#e91e24;fill-opacity:1;stroke-width:0.0846667"
         d="m 44.798385,51.018446 c 0.03603,-0.06107 0.253385,-0.391621 0.483,-0.734562 0.668759,-0.99882 0.85061,-1.468077 0.89034,-2.29747 0.02529,-0.52803 -0.01126,-0.911304 -0.137277,-1.439333 -0.190635,-0.7988 -0.689698,-2.049024 -0.919124,-2.302536 -0.140746,-0.155523 -0.15407,-0.156311 -0.257235,-0.01523 -0.06388,0.08736 -0.1088,0.391415 -0.1088,0.736451 0,0.444935 -0.04221,0.655961 -0.173816,0.868896 -0.247934,0.401167 -0.917954,0.863785 -1.673024,1.155146 -0.832161,0.321109 -1.179326,0.58705 -1.390988,1.065547 -0.294316,0.66535 -0.141185,1.401166 0.529054,2.542188 0.259844,0.442359 0.261335,0.450915 0.06901,0.395798 -0.108114,-0.03098 -0.501372,-0.200137 -0.873905,-0.375895 -1.586139,-0.748326 -2.34419,-2.023183 -2.141039,-3.600703 0.09856,-0.765315 0.209478,-1.017986 0.737872,-1.680811 1.238108,-1.553104 2.555824,-2.444158 5.024825,-3.397846 1.156198,-0.446599 1.525774,-0.633184 1.894747,-0.956589 0.634821,-0.556418 1.180362,-1.713154 1.226275,-2.600123 0.01907,-0.368389 0.02761,-0.38025 0.194633,-0.270442 0.09608,0.06316 0.279829,0.320263 0.408335,0.571328 0.30188,0.589788 0.41702,1.507572 0.345727,2.755814 -0.03017,0.528184 -0.03361,0.960336 -0.0077,0.960336 0.02596,0 0.144453,-0.165962 0.263326,-0.368804 0.288872,-0.492929 1.577954,-1.662465 1.577954,-1.431623 0,0.376051 -0.273202,1.014821 -0.869614,2.033233 -0.947002,1.61707 -1.156828,2.245129 -1.485458,4.446324 -0.221411,1.483037 -1.388232,2.901503 -3.092932,3.759977 -0.318862,0.160576 -0.550268,0.241992 -0.514234,0.180925 z m 3.935803,-23.857054 c -32.489459,-18.1075947 -16.244729,-9.053797 0,0 z"
         id="path346-3"
         sodipodi:nodetypes="csssssssssssssssssssssssssscccc"
         inkscape:label="flame1" /><path
         style="display:inline;fill:#ea7b22;fill-opacity:1;stroke-width:0.0846667"
         d="m 38.171735,46.456933 c -0.666032,-0.972146 -0.962035,-1.963439 -0.971713,-3.254186 -0.01115,-1.487856 0.458345,-2.469321 1.730956,-3.61848 1.995353,-1.801788 2.305839,-2.256323 2.403138,-3.518066 l 0.05296,-0.686822 0.226967,0.11737 c 0.549234,0.28402 1.077556,1.100333 1.281436,1.979952 0.154416,0.666209 0.160295,0.669956 0.369849,0.235665 0.224065,-0.464366 0.571046,-0.860346 0.908252,-1.036511 0.125746,-0.06569 0.249571,-0.119441 0.275167,-0.119441 0.02559,0 0.04654,0.496906 0.04654,1.104236 0,1.320311 -0.162932,2.211184 -0.531141,2.904164 -0.300191,0.564966 -0.525817,0.756285 -1.416193,1.200855 -2.126145,1.061598 -3.654847,2.791586 -4.01141,4.539595 l -0.107537,0.527189 z"
         id="path346-3-4"
         sodipodi:nodetypes="sssscssssssssscs"
         inkscape:label="flame2" /><path
         style="display:inline;fill:#edb11d;fill-opacity:1;stroke-width:0.0846667"
         d="m 44.918622,40.492023 c 0,-0.02405 0.116912,-0.464935 0.259804,-0.979749 0.352213,-1.268957 0.586863,-2.518945 0.586863,-3.126244 0,-0.44471 -0.02484,-0.519318 -0.214151,-0.643363 -0.296146,-0.194042 -1.034495,-0.09912 -1.659912,0.213409 l -0.480943,0.24033 -0.04321,-0.222163 c -0.06349,-0.3264 0.08539,-1.005433 0.2947,-1.344102 0.228543,-0.369791 0.818638,-0.750318 1.426186,-0.919689 1.644648,-0.45849 1.851733,-0.591386 2.611846,-1.67615 0.435837,-0.621985 0.477689,-0.658911 0.530873,-0.468386 0.03175,0.113757 0.06153,0.596947 0.06618,1.073756 0.0064,0.656371 -0.02985,0.967706 -0.149228,1.281874 l -0.157668,0.414948 0.545866,0.525572 c 0.626734,0.603435 1.131534,1.34149 1.350723,1.97486 0.191988,0.554768 0.195262,1.589128 0.0064,2.005488 l -0.134454,0.296333 -0.0069,-0.271991 c -0.01059,-0.417146 -0.310266,-1.123189 -0.667427,-1.572486 -0.608061,-0.764921 -1.514535,-1.233762 -1.658755,-0.857931 -0.02827,0.07366 -0.05139,0.266965 -0.05139,0.429571 0,0.162606 -0.09522,0.579296 -0.211595,0.925978 -0.333386,0.993139 -0.845504,1.723097 -1.655134,2.359178 -0.468167,0.367814 -0.588605,0.437578 -0.588605,0.340957 z m -0.5715,-7.755034 c -0.187758,-0.19357 -0.127851,-0.649898 0.112767,-0.858968 0.120229,-0.104468 0.356658,-0.370916 0.525397,-0.592107 0.368188,-0.48264 0.63801,-0.526662 1.037895,-0.169334 0.323669,0.289223 0.429644,0.837434 0.222884,1.15299 -0.234347,0.357658 -1.664055,0.709577 -1.898943,0.467419 z"
         id="path346-2"
         sodipodi:nodetypes="csssscssssssscssccssssssccssssss"
         inkscape:label="flame3" /><path
         style="display:inline;fill:#e9e316;fill-opacity:1;stroke-width:0.0846667"
         d="m 48.984226,31.77472 c -0.07742,-0.201842 -0.34027,-1.314803 -0.34027,-1.440794 0,-0.07601 -0.276604,-0.296846 -0.371808,-0.296846 -0.05814,0 -0.264482,0.1359 -0.458533,0.302001 -0.417659,0.3575 -0.561265,0.315171 -0.499254,-0.147158 0.05936,-0.442523 0.636303,-1.180867 1.24658,-1.595298 0.608814,-0.413437 0.979802,-0.837593 1.108597,-1.267474 0.196498,-0.655851 0.329084,-0.379335 0.329084,0.686322 0,0.683819 0.02593,0.808363 0.2632,1.264265 0.209138,0.401846 0.251826,0.566344 0.20783,0.800865 -0.03045,0.162329 -0.0898,0.295144 -0.13189,0.295144 -0.04209,0 -0.178233,-0.13335 -0.302547,-0.296333 -0.124313,-0.162984 -0.259602,-0.296334 -0.300642,-0.296334 -0.04104,0 -0.07462,0.252755 -0.07462,0.561677 0,0.664706 -0.118471,1.107991 -0.384836,1.439947 L 49.0809,32.026747 Z M 47.92909,27.986241 c -0.183539,-0.262038 -0.168573,-0.334736 0.132246,-0.642421 0.281013,-0.287428 0.410872,-0.322636 0.672852,-0.182428 0.247666,0.132547 0.198242,0.352325 -0.157302,0.699505 -0.372725,0.363957 -0.467782,0.38235 -0.647796,0.125344 z"
         id="path346-6"
         sodipodi:nodetypes="ssssssssssssssscssssss"
         inkscape:label="flame4" /></g><path
       style="fill:#e9e316;fill-opacity:1;stroke:#44466d;stroke-width:0.421969;stroke-linecap:butt;stroke-linejoin:round;stroke-dasharray:none;stop-color:#000000"
       d="M 39.357053,102.42537 H 195.91548"
       id="path5789" /><path
       style="fill:#e9e316;fill-opacity:1;stroke:#44466d;stroke-width:0.488711;stroke-linecap:butt;stroke-linejoin:round;stroke-dasharray:none;stop-color:#000000"
       d="m -14.08452,188.70307 h 210"
       id="path5789-0" /><path
       style="fill:#e9e316;fill-opacity:1;stroke:#44466d;stroke-width:0.422;stroke-linecap:butt;stroke-linejoin:round;stroke-dasharray:none;stop-color:#000000"
       d="M -14.08452,102.42537 H 15.956777"
       id="path5789-8" /></g></svg>
